<svg version="1.1" id="Layer_1" xmlns="http://www.w3.org/2000/svg" xmlns:xlink="http://www.w3.org/1999/xlink" x="0px" y="0px"
	 width="100%" viewBox="0 0 500 500" enable-background="new 0 0 500 500" xml:space="preserve">
<path fill="#DB4A2B" opacity="1.000000" stroke="none" 
	d="
M278.000000,501.000000 
	C185.333359,501.000000 93.166710,501.000000 1.000049,501.000000 
	C1.000033,334.333405 1.000033,167.666794 1.000016,1.000139 
	C167.666565,1.000093 334.333130,1.000093 500.999756,1.000046 
	C500.999847,167.666519 500.999847,334.333038 500.999939,500.999786 
	C426.833344,501.000000 352.666656,501.000000 278.000000,501.000000 
M298.500366,111.737534 
	C219.753128,111.737534 141.005890,111.737534 62.260452,111.737534 
	C62.260452,198.851379 62.260452,285.397308 62.260452,371.978882 
	C188.277893,371.978882 313.993500,371.978882 439.705139,371.978882 
	C439.705139,285.151154 439.705139,198.607559 439.705139,111.737991 
	C392.765717,111.737991 346.133087,111.737991 298.500366,111.737534 
z"/>
<path fill="#FCF0EE" opacity="1.000000" stroke="none" 
	d="
M299.000397,111.737762 
	C346.133087,111.737991 392.765717,111.737991 439.705139,111.737991 
	C439.705139,198.607559 439.705139,285.151154 439.705139,371.978882 
	C313.993500,371.978882 188.277893,371.978882 62.260452,371.978882 
	C62.260452,285.397308 62.260452,198.851379 62.260452,111.737534 
	C141.005890,111.737534 219.753128,111.737534 299.000397,111.737762 
M435.959198,267.500000 
	C435.959198,217.044464 435.959198,166.588928 435.959198,115.986298 
	C312.424652,115.986298 189.394485,115.986298 66.323059,115.986298 
	C66.323059,200.248444 66.323059,284.155151 66.323059,368.117981 
	C189.589264,368.117981 312.521545,368.117981 435.959198,368.117981 
	C435.959198,334.746521 435.959198,301.623260 435.959198,267.500000 
z"/>
<path fill="#DA4A2B" opacity="1.000000" stroke="none" 
	d="
M435.959198,268.000000 
	C435.959198,301.623260 435.959198,334.746521 435.959198,368.117981 
	C312.521545,368.117981 189.589264,368.117981 66.323059,368.117981 
	C66.323059,284.155151 66.323059,200.248444 66.323059,115.986298 
	C189.394485,115.986298 312.424652,115.986298 435.959198,115.986298 
	C435.959198,166.588928 435.959198,217.044464 435.959198,268.000000 
M139.353210,326.038971 
	C140.191559,326.106812 141.029907,326.174622 141.873001,327.054443 
	C141.628891,330.491730 144.218704,329.660522 146.004089,329.627563 
	C154.812378,329.464996 163.619186,328.959137 172.425064,328.989502 
	C185.926682,329.036011 199.428467,329.678040 212.927719,329.605652 
	C234.889709,329.487885 256.849915,329.007904 278.810516,328.659149 
	C289.273041,328.493011 299.734924,328.112030 310.196777,328.124298 
	C324.001190,328.140503 337.804962,328.491150 351.609772,328.574463 
	C353.343750,328.584930 355.094025,327.464447 356.816650,327.517792 
	C365.081940,327.773712 373.338867,328.285339 381.601685,328.638184 
	C385.216583,328.792572 387.094330,327.288300 387.084320,323.322693 
	C387.037994,304.994385 387.082367,286.664856 387.276001,268.337677 
	C387.320892,264.089020 385.487061,262.679016 381.539856,262.929840 
	C378.944946,263.094727 376.331085,262.960999 373.836243,262.960999 
	C373.836243,254.250290 373.836243,246.196136 373.836243,237.977661 
	C375.504272,237.845062 376.638947,237.721680 377.776886,237.669891 
	C384.197052,237.377701 385.020905,236.661972 385.126678,230.411026 
	C385.230865,224.256027 385.041809,218.095947 385.153503,211.941238 
	C385.219940,208.278229 383.577301,206.847641 380.014465,206.930908 
	C374.851929,207.051544 369.684479,206.960587 364.519104,206.960403 
	C357.082611,206.960129 349.646118,206.960327 341.888580,206.960327 
	C341.888580,204.479294 341.883514,202.668076 341.889404,200.856873 
	C341.941254,184.861008 341.925507,168.864426 342.094604,152.869781 
	C342.139771,148.597244 340.451904,146.857910 336.168884,146.914520 
	C325.511749,147.055420 314.851471,146.960373 304.192474,146.960342 
	C274.733154,146.960266 245.273834,146.960236 215.814514,146.960342 
	C190.998291,146.960434 166.181915,146.909790 141.365906,146.982544 
	C129.026245,147.018723 121.141769,153.974548 118.864029,166.101959 
	C117.266373,174.608414 119.858276,181.654419 126.285210,188.089478 
	C120.114349,187.786469 118.668182,190.834961 118.876854,195.647903 
	C119.358635,206.760117 119.650032,217.880692 119.998466,228.998505 
	C120.248535,236.978058 120.597031,237.446960 128.599594,237.610214 
	C131.392746,237.667191 133.002289,238.197601 132.858261,241.460800 
	C132.542480,248.615021 132.602905,255.789597 132.117554,262.929199 
	C132.029587,264.222961 130.306671,265.921570 128.938370,266.523285 
	C122.920547,269.169586 119.127434,273.644806 116.615669,279.597656 
	C112.472038,289.418030 113.457787,299.622620 114.682175,309.638672 
	C116.165352,321.771667 127.005440,329.801147 139.402481,328.977478 
	C139.102249,328.032043 138.805130,327.096466 139.353210,326.038971 
z"/>
<path fill="#0F0E0E" opacity="1.000000" stroke="none" 
	d="
M138.508026,326.160889 
	C138.805130,327.096466 139.102249,328.032043 139.402481,328.977478 
	C127.005440,329.801147 116.165352,321.771667 114.682175,309.638672 
	C113.457787,299.622620 112.472038,289.418030 116.615669,279.597656 
	C119.127434,273.644806 122.920547,269.169586 128.938370,266.523285 
	C130.306671,265.921570 132.029587,264.222961 132.117554,262.929199 
	C132.602905,255.789597 132.542480,248.615021 132.858261,241.460800 
	C133.002289,238.197601 131.392746,237.667191 128.599594,237.610214 
	C120.597031,237.446960 120.248535,236.978058 119.998466,228.998505 
	C119.650032,217.880692 119.358635,206.760117 118.876854,195.647903 
	C118.668182,190.834961 120.114349,187.786469 126.285210,188.089478 
	C119.858276,181.654419 117.266373,174.608414 118.864029,166.101959 
	C121.141769,153.974548 129.026245,147.018723 141.365906,146.982544 
	C166.181915,146.909790 190.998291,146.960434 215.814514,146.960342 
	C245.273834,146.960236 274.733154,146.960266 304.192474,146.960342 
	C314.851471,146.960373 325.511749,147.055420 336.168884,146.914520 
	C340.451904,146.857910 342.139771,148.597244 342.094604,152.869781 
	C341.925507,168.864426 341.941254,184.861008 341.889404,200.856873 
	C341.883514,202.668076 341.888580,204.479294 341.888580,206.960327 
	C349.646118,206.960327 357.082611,206.960129 364.519104,206.960403 
	C369.684479,206.960587 374.851929,207.051544 380.014465,206.930908 
	C383.577301,206.847641 385.219940,208.278229 385.153503,211.941238 
	C385.041809,218.095947 385.230865,224.256027 385.126678,230.411026 
	C385.020905,236.661972 384.197052,237.377701 377.776886,237.669891 
	C376.638947,237.721680 375.504272,237.845062 373.836243,237.977661 
	C373.836243,246.196136 373.836243,254.250290 373.836243,262.960999 
	C376.331085,262.960999 378.944946,263.094727 381.539856,262.929840 
	C385.487061,262.679016 387.320892,264.089020 387.276001,268.337677 
	C387.082367,286.664856 387.037994,304.994385 387.084320,323.322693 
	C387.094330,327.288300 385.216583,328.792572 381.601685,328.638184 
	C373.338867,328.285339 365.081940,327.773712 356.816650,327.517792 
	C355.094025,327.464447 353.343750,328.584930 351.609772,328.574463 
	C337.804962,328.491150 324.001190,328.140503 310.196777,328.124298 
	C299.734924,328.112030 289.273041,328.493011 278.810516,328.659149 
	C256.849915,329.007904 234.889709,329.487885 212.927719,329.605652 
	C199.428467,329.678040 185.926682,329.036011 172.425064,328.989502 
	C163.619186,328.959137 154.812378,329.464996 146.004089,329.627563 
	C144.218704,329.660522 141.628891,330.491730 142.346893,326.561157 
	C151.579895,326.067902 160.339020,326.067902 168.718399,326.067902 
	C168.718399,315.327972 168.718399,305.275970 168.718399,295.314758 
	C161.888443,295.314758 155.606567,295.314758 148.856384,295.314758 
	C148.532639,299.550934 148.222748,303.605896 147.824249,308.820343 
	C144.778381,307.830017 140.469131,307.490906 140.105331,306.111389 
	C139.017349,301.985626 138.859894,297.333191 139.674133,293.145996 
	C139.944092,291.757843 144.228912,290.458282 146.740433,290.329102 
	C154.009323,289.955261 161.309860,290.196869 168.966629,290.196869 
	C168.966629,282.918976 168.966629,275.515015 168.966629,267.983276 
	C157.921143,267.983276 146.936249,267.321991 136.075256,268.197723 
	C127.758743,268.868286 120.984711,273.897522 119.378349,282.414673 
	C117.860397,290.463013 118.195854,298.870880 117.846909,307.126129 
	C117.627235,312.323212 120.339798,316.198944 123.705986,319.890137 
	C127.745834,324.320068 133.075455,325.257629 138.508026,326.160889 
M370.485748,266.598480 
	C367.552063,266.598480 364.618408,266.598480 361.730621,266.598480 
	C361.448853,272.747650 361.199982,278.178284 360.951141,283.608887 
	C360.272980,283.660889 359.594818,283.712860 358.916656,283.764832 
	C357.902802,279.330261 357.045715,274.850433 355.786682,270.486603 
	C355.368073,269.035553 353.967346,266.812897 352.931305,266.764954 
	C345.835754,266.436493 338.717743,266.592621 331.425751,266.592621 
	C331.425751,286.283447 331.425751,305.509308 331.425751,324.739380 
	C338.657776,324.739380 345.585754,324.739380 353.296234,324.739380 
	C353.296234,319.587006 353.296234,314.647064 353.296234,309.707123 
	C353.795349,309.662811 354.294495,309.618500 354.793610,309.574219 
	C356.262177,314.693481 357.730743,319.812744 359.127960,324.683319 
	C367.563019,324.683319 375.487427,324.683319 383.625092,324.683319 
	C383.625092,305.267395 383.625092,286.149597 383.625092,266.598450 
	C379.420288,266.598450 375.454803,266.598450 370.485748,266.598480 
M197.207428,154.596283 
	C197.207428,172.003250 197.207428,189.410217 197.207428,206.631470 
	C204.692581,207.102692 211.568695,207.535568 219.226807,208.017670 
	C219.226807,202.992722 219.226807,198.382263 219.226807,193.771820 
	C219.748764,193.707565 220.270721,193.643295 220.792679,193.579041 
	C222.156448,198.361694 223.520203,203.144348 224.971756,208.234879 
	C233.309723,208.234879 241.309448,208.234879 249.535278,208.234879 
	C249.535278,188.636841 249.535278,169.753479 249.535278,150.874329 
	C242.097733,150.874329 234.998398,150.874329 227.021667,150.874329 
	C227.021667,156.590439 227.021667,162.052780 227.021667,167.515121 
	C226.499557,167.594421 225.977448,167.673721 225.455338,167.753036 
	C224.918167,166.340561 224.233383,164.964523 223.873978,163.508179 
	C223.077927,160.282562 222.697037,156.930267 221.626236,153.808197 
	C221.177414,152.499573 219.458511,150.799393 218.229996,150.725540 
	C212.254578,150.366409 206.243103,150.343658 200.261368,150.599213 
	C199.200439,150.644562 198.219879,152.570984 197.207428,154.596283 
M169.219162,204.939651 
	C175.462357,198.581604 175.014511,191.000122 172.476822,183.495499 
	C170.113083,176.505325 164.147507,173.935104 157.209702,173.413559 
	C154.057526,173.176590 150.865677,173.361038 147.736755,172.982651 
	C146.731674,172.861099 145.870560,171.549271 144.943573,170.781982 
	C145.814987,169.947617 146.596161,168.542130 147.574951,168.387527 
	C150.350662,167.949036 153.206345,167.938339 156.032013,167.910873 
	C161.937653,167.853470 167.844208,167.893494 173.654999,167.893494 
	C173.654999,162.293671 173.654999,156.554337 173.654999,150.652542 
	C161.960052,150.652542 150.629883,150.455322 139.311020,150.728073 
	C132.742371,150.886353 127.298393,153.757477 124.516907,160.049118 
	C121.355095,167.201050 120.003304,174.776337 125.352493,181.294632 
	C127.628319,184.067856 131.749405,185.796188 135.366852,186.855057 
	C138.427612,187.750961 141.984161,186.818253 145.295227,187.056717 
	C146.725189,187.159683 148.089478,188.174240 149.483612,188.774704 
	C148.141632,189.750824 146.870392,191.430298 145.444672,191.573669 
	C140.818130,192.038910 136.135483,191.968277 131.473495,192.050674 
	C128.515915,192.102951 125.556679,192.060425 122.405518,192.060425 
	C122.405518,197.184677 122.405518,201.938400 122.405518,206.975769 
	C136.573944,206.975769 150.551727,207.017792 164.528336,206.909348 
	C165.893494,206.898758 167.251434,205.961151 169.219162,204.939651 
M310.021149,152.236755 
	C309.642578,151.746826 309.270264,150.835632 308.884583,150.829956 
	C302.808624,150.740204 296.730957,150.766937 290.296844,150.766937 
	C293.484741,169.804382 296.582123,188.301437 299.657471,206.666824 
	C302.681671,206.666824 305.088318,206.666824 308.181610,206.666824 
	C308.181610,202.162994 308.181610,197.973312 308.181610,193.783630 
	C308.674408,193.741455 309.167236,193.699280 309.660034,193.657089 
	C310.894897,198.134445 312.129761,202.611786 313.480225,207.508301 
	C321.967163,207.508301 329.959595,207.508301 338.286285,207.508301 
	C338.286285,188.020493 338.286285,169.598679 338.286285,150.919281 
	C330.965698,150.919281 323.753723,150.919281 315.645325,150.919281 
	C315.645325,156.658936 315.645325,162.104004 315.645325,167.549072 
	C315.024750,167.612961 314.404175,167.676849 313.783600,167.740738 
	C312.590881,162.862671 311.398193,157.984589 310.021149,152.236755 
M222.133682,262.346619 
	C225.520172,263.079865 228.906677,263.813141 232.346069,264.557861 
	C232.737534,260.489044 233.014557,257.609650 233.291580,254.730270 
	C233.810791,254.706848 234.330002,254.683426 234.849228,254.660004 
	C236.265976,259.654449 237.682739,264.648926 239.099487,269.643402 
	C239.352036,263.974548 242.374268,262.571686 247.408630,262.903046 
	C252.691696,263.250793 258.015411,262.980835 263.548950,262.980835 
	C263.548950,245.678986 263.548950,228.779190 263.548950,211.867340 
	C256.123779,211.867340 249.022034,211.867340 241.043823,211.867340 
	C241.043823,217.578720 241.043823,223.045120 241.043823,228.511520 
	C240.520554,228.593765 239.997299,228.676010 239.474030,228.758255 
	C238.931870,227.352310 238.237839,225.983948 237.878510,224.532745 
	C237.079849,221.307373 236.600479,217.996231 235.671616,214.813263 
	C235.321167,213.612427 234.125031,211.785080 233.252792,211.749405 
	C226.855087,211.487671 220.441727,211.608185 213.691544,211.608185 
	C216.536926,228.673935 219.270660,245.070068 222.133682,262.346619 
M212.684937,269.801392 
	C211.993988,269.075531 211.316620,267.734558 210.609985,267.718933 
	C203.522598,267.562469 196.430389,267.623810 188.943817,267.623810 
	C188.943817,272.448578 188.963654,276.747986 188.938904,281.047119 
	C188.906342,286.705505 189.047607,292.377960 188.662964,298.013550 
	C188.542572,299.777679 186.964371,301.442352 186.053467,303.152527 
	C185.082840,301.439362 183.607193,299.821930 183.260086,297.990570 
	C182.740570,295.249695 182.969727,292.358612 182.959564,289.531128 
	C182.933426,282.265778 182.950821,275.000275 182.950821,267.592438 
	C179.368317,267.592438 176.399826,267.592438 172.550964,267.592438 
	C172.550964,286.819702 172.550964,305.958984 172.550964,325.980103 
	C179.372086,325.980103 185.474686,325.984863 191.577271,325.979156 
	C206.574066,325.965179 212.434494,320.282135 212.639618,305.206635 
	C212.795822,293.725006 212.683853,282.239746 212.684937,269.801392 
M293.334198,266.690643 
	C286.384857,266.690643 279.435547,266.690643 272.342316,266.690643 
	C272.342316,271.568237 272.572266,276.044464 272.219330,280.474243 
	C272.093384,282.054779 270.555542,283.522797 269.662170,285.042175 
	C268.650482,283.602997 266.894989,282.226929 266.766449,280.712769 
	C266.379822,276.157959 266.627106,271.549286 266.627106,266.940369 
	C258.494476,266.940369 251.084320,266.940369 243.982452,266.940369 
	C243.982452,278.524231 243.982452,289.761963 243.982452,301.015991 
	C248.407639,301.015991 252.239487,301.206635 256.044250,300.967133 
	C260.677979,300.675476 262.276703,302.673431 262.069580,307.176239 
	C261.803131,312.969910 262.004761,318.785126 262.004761,324.699402 
	C263.717255,324.699402 265.096588,324.699402 266.498291,324.699402 
	C267.707245,318.685242 264.959442,312.326324 269.285004,305.871033 
	C273.691620,312.248871 271.119110,318.954559 272.819885,324.837219 
	C276.601318,324.837219 280.242188,324.837219 284.117737,324.837219 
	C284.593903,322.311707 285.087494,319.885345 285.505493,317.446045 
	C288.369720,300.731018 291.218079,284.013214 293.334198,266.690643 
M175.328568,220.504791 
	C175.328568,217.246094 175.328568,213.987411 175.328568,210.867249 
	C157.505066,210.867249 140.579956,210.867249 123.777885,210.867249 
	C123.777885,218.659286 123.777885,226.182617 123.777885,233.974915 
	C125.379044,233.974915 126.349731,233.968384 127.320305,233.975952 
	C135.700363,234.041275 136.156143,234.460556 136.200806,242.646606 
	C136.239532,249.749298 136.208847,256.852386 136.208847,263.781006 
	C145.391586,263.781006 154.299866,263.781006 163.353470,263.781006 
	C163.353470,260.114319 163.340790,256.794312 163.357040,253.474472 
	C163.373322,250.147049 163.389496,246.819168 163.456543,243.492508 
	C163.641724,234.306625 163.652420,234.312592 172.942154,233.972046 
	C173.557297,233.949478 174.165604,233.740570 175.347000,233.504425 
	C175.347000,229.424713 175.347000,225.460510 175.328568,220.504791 
M267.176056,223.511566 
	C267.124939,235.664322 266.981750,247.818283 267.143707,259.968201 
	C267.163116,261.424316 268.883575,264.111053 269.741058,264.081238 
	C273.090790,263.964874 276.410583,262.985870 280.109924,262.254700 
	C280.356201,258.874542 280.628387,255.138672 280.900574,251.402817 
	C281.344391,251.328384 281.788208,251.253967 282.232025,251.179535 
	C283.345581,255.029404 284.459106,258.879272 285.562042,262.692444 
	C293.639038,262.692444 301.499451,262.692444 310.004913,262.692444 
	C308.349030,256.458344 307.176666,250.577072 305.175232,244.992981 
	C303.684296,240.833176 303.670502,237.101364 304.965149,232.959793 
	C307.210175,225.777802 309.047516,218.468338 311.223755,210.605576 
	C304.578949,210.605576 298.914612,210.939316 293.310760,210.500748 
	C288.766205,210.145096 286.767059,211.790787 285.906586,216.139160 
	C285.224152,219.587906 283.718781,222.873779 282.578796,226.231979 
	C282.013306,226.079208 281.447815,225.926422 280.882324,225.773651 
	C280.882324,220.752945 280.882324,215.732239 280.882324,210.861511 
	C276.115112,210.861511 271.843414,210.861511 267.180359,210.861511 
	C267.180359,214.914078 267.180359,218.715881 267.176056,223.511566 
M203.499130,263.977509 
	C208.591721,263.977509 213.684326,263.977509 218.937973,263.977509 
	C215.895477,245.940796 212.943039,228.438095 209.997787,210.977936 
	C199.346146,210.977936 189.146744,210.977936 178.839890,210.977936 
	C178.839890,217.329498 178.945969,223.311996 178.812683,229.289154 
	C178.650711,236.554123 178.511459,236.613358 171.227905,238.013519 
	C169.661270,246.468079 168.079895,255.002213 166.396210,264.088501 
	C173.184570,264.088501 178.910385,264.088501 184.885757,264.088501 
	C186.593903,254.168671 188.262604,244.178589 190.073914,234.214401 
	C190.431152,232.249130 191.337784,230.383713 191.991058,228.472244 
	C192.673615,228.593018 193.356155,228.713806 194.038712,228.834579 
	C195.062210,236.441315 196.085709,244.048065 197.168655,252.096619 
	C194.704865,252.473022 192.662094,252.785126 190.432388,253.125778 
	C190.073776,256.720306 189.729858,260.167603 189.349762,263.977509 
	C193.872086,263.977509 198.187195,263.977509 203.499130,263.977509 
M288.481964,161.110794 
	C287.890320,157.717484 287.298676,154.324158 286.701233,150.897766 
	C275.433624,150.897766 264.540649,150.897766 253.336273,150.897766 
	C253.336273,170.077408 253.336273,188.964767 253.336273,208.147308 
	C256.086700,207.622925 258.645752,207.135025 261.261963,206.636230 
	C262.390717,200.081467 263.278778,193.495850 264.709412,187.030304 
	C266.061676,180.919235 265.582306,174.237808 269.797272,168.727448 
	C271.519379,174.461624 271.945770,180.190430 273.167725,185.744202 
	C274.318695,190.975342 273.390717,193.810928 267.211182,192.819290 
	C266.733917,197.683975 266.291779,202.190384 265.816803,207.031738 
	C276.306030,206.637421 286.114014,208.014801 296.119141,206.677521 
	C293.633484,191.723572 291.159515,176.839890 288.481964,161.110794 
M349.613251,210.622238 
	C342.520264,210.622238 335.427277,210.622238 327.946289,210.622238 
	C327.946289,215.293015 327.964905,219.428574 327.941772,223.563889 
	C327.910095,229.224686 328.072571,234.901352 327.672333,240.537155 
	C327.535614,242.461990 325.952118,244.284088 325.029694,246.153137 
	C324.050720,244.265900 322.588440,242.469971 322.210388,240.469193 
	C321.692566,237.728882 321.965118,234.833069 321.957275,232.003754 
	C321.937592,224.911575 321.950775,217.819305 321.950775,210.738312 
	C319.047089,210.738312 316.792938,210.738312 314.812561,210.738312 
	C312.428558,219.397064 310.113556,227.699112 307.879730,236.022934 
	C307.505920,237.415665 307.028015,239.024597 307.375183,240.326385 
	C309.370972,247.809738 311.600861,255.230637 313.839905,262.979187 
	C322.799255,262.979187 331.939545,262.979218 341.079834,262.979187 
	C348.956757,262.979126 350.109833,261.994568 351.153351,254.230225 
	C351.396851,252.418289 351.629974,250.587463 351.638367,248.764267 
	C351.691193,237.275986 351.709991,225.787216 351.642303,214.299194 
	C351.635345,213.115372 350.984619,211.935333 349.613251,210.622238 
M298.097748,267.321198 
	C294.763306,286.428162 291.428864,305.535126 288.082306,324.711700 
	C294.450439,324.711700 300.705658,324.711700 306.783997,324.711700 
	C309.149628,311.108368 310.556274,297.604156 315.163330,284.634003 
	C316.457275,286.173523 316.961487,287.651672 317.190369,289.171295 
	C317.809570,293.282227 318.293732,297.413239 318.864380,301.531738 
	C319.808655,308.346558 319.819550,308.345062 312.905151,309.140533 
	C312.416901,314.247925 311.920990,319.435608 311.412964,324.750000 
	C317.133179,324.750000 322.224976,324.750000 327.602173,324.750000 
	C327.602173,305.315063 327.602173,286.110107 327.602173,266.728271 
	C317.768707,266.728271 308.294830,266.728271 298.097748,267.321198 
M258.518890,306.343262 
	C257.270996,305.697937 256.034302,304.529480 254.773102,304.502411 
	C250.457611,304.409943 246.134201,304.822296 241.812531,304.851135 
	C233.854843,304.904236 233.898651,304.847961 233.938995,296.835419 
	C233.987320,287.240784 233.950424,277.645721 233.950424,267.852081 
	C227.556351,267.852081 221.992493,267.852081 216.067551,267.852081 
	C216.067551,279.709137 216.081985,291.326355 216.062698,302.943512 
	C216.048798,311.327850 215.471909,319.536346 207.621460,325.641541 
	C225.050476,325.641541 241.696594,325.641541 258.511597,325.641541 
	C258.511597,319.329681 258.511597,313.350983 258.518890,306.343262 
M352.330536,262.692322 
	C358.045441,262.877167 363.760376,263.062012 369.977295,263.263062 
	C369.977295,255.166824 370.148529,247.724182 369.914307,240.294312 
	C369.769470,235.700134 371.125580,233.302719 376.144470,233.963943 
	C377.854187,234.189178 379.638580,233.847382 381.577759,233.755753 
	C381.577759,225.833862 381.577759,218.426071 381.577759,210.814026 
	C372.645599,210.814026 364.066620,210.814026 355.067505,210.814026 
	C355.067505,222.431061 355.343628,233.881363 354.948700,245.308487 
	C354.756805,250.860718 353.309479,256.369568 352.330536,262.692322 
M193.817520,183.500214 
	C193.817520,172.723801 193.817520,161.947372 193.817520,150.956085 
	C188.080338,150.956085 182.887527,150.956085 177.429520,150.956085 
	C177.429520,155.952850 177.249832,160.599396 177.476440,165.226028 
	C177.740875,170.625381 176.613785,171.992157 171.099808,172.014557 
	C170.032745,172.018890 168.965637,172.015182 167.320847,172.015182 
	C178.780823,181.976089 180.090485,190.221664 173.324814,206.686493 
	C180.045670,206.686493 186.753311,206.686493 193.820618,206.686493 
	C193.820618,199.094666 193.820618,191.797424 193.817520,183.500214 
M240.160217,283.227142 
	C239.497986,279.905579 241.540466,275.928497 237.331131,272.005432 
	C237.331131,280.939362 237.289520,288.529266 237.410187,296.116577 
	C237.419815,296.722717 238.549789,297.311066 239.159119,297.907684 
	C239.617386,297.151459 240.463821,296.397583 240.468506,295.638580 
	C240.492081,291.811188 240.296265,287.982452 240.160217,283.227142 
M142.388306,295.041809 
	C142.387222,298.241913 140.556900,301.806824 144.669693,305.491394 
	C144.857651,301.282043 145.054581,298.251282 145.030457,295.222260 
	C145.028107,294.927887 143.659790,294.644409 142.388306,295.041809 
z"/>
<path fill="#FCFCFC" opacity="1.000000" stroke="none" 
	d="
M138.930618,326.099915 
	C133.075455,325.257629 127.745834,324.320068 123.705986,319.890137 
	C120.339798,316.198944 117.627235,312.323212 117.846909,307.126129 
	C118.195854,298.870880 117.860397,290.463013 119.378349,282.414673 
	C120.984711,273.897522 127.758743,268.868286 136.075256,268.197723 
	C146.936249,267.321991 157.921143,267.983276 168.966629,267.983276 
	C168.966629,275.515015 168.966629,282.918976 168.966629,290.196869 
	C161.309860,290.196869 154.009323,289.955261 146.740433,290.329102 
	C144.228912,290.458282 139.944092,291.757843 139.674133,293.145996 
	C138.859894,297.333191 139.017349,301.985626 140.105331,306.111389 
	C140.469131,307.490906 144.778381,307.830017 147.824249,308.820343 
	C148.222748,303.605896 148.532639,299.550934 148.856384,295.314758 
	C155.606567,295.314758 161.888443,295.314758 168.718399,295.314758 
	C168.718399,305.275970 168.718399,315.327972 168.718399,326.067902 
	C160.339020,326.067902 151.579895,326.067902 142.344513,326.155182 
	C141.029907,326.174622 140.191559,326.106812 138.930618,326.099915 
z"/>
<path fill="#FAFAFA" opacity="1.000000" stroke="none" 
	d="
M370.987518,266.598450 
	C375.454803,266.598450 379.420288,266.598450 383.625092,266.598450 
	C383.625092,286.149597 383.625092,305.267395 383.625092,324.683319 
	C375.487427,324.683319 367.563019,324.683319 359.127960,324.683319 
	C357.730743,319.812744 356.262177,314.693481 354.793610,309.574219 
	C354.294495,309.618500 353.795349,309.662811 353.296234,309.707123 
	C353.296234,314.647064 353.296234,319.587006 353.296234,324.739380 
	C345.585754,324.739380 338.657776,324.739380 331.425751,324.739380 
	C331.425751,305.509308 331.425751,286.283447 331.425751,266.592621 
	C338.717743,266.592621 345.835754,266.436493 352.931305,266.764954 
	C353.967346,266.812897 355.368073,269.035553 355.786682,270.486603 
	C357.045715,274.850433 357.902802,279.330261 358.916656,283.764832 
	C359.594818,283.712860 360.272980,283.660889 360.951141,283.608887 
	C361.199982,278.178284 361.448853,272.747650 361.730621,266.598480 
	C364.618408,266.598480 367.552063,266.598480 370.987518,266.598450 
z"/>
<path fill="#FAFAFA" opacity="1.000000" stroke="none" 
	d="
M197.204819,154.112518 
	C198.219879,152.570984 199.200439,150.644562 200.261368,150.599213 
	C206.243103,150.343658 212.254578,150.366409 218.229996,150.725540 
	C219.458511,150.799393 221.177414,152.499573 221.626236,153.808197 
	C222.697037,156.930267 223.077927,160.282562 223.873978,163.508179 
	C224.233383,164.964523 224.918167,166.340561 225.455338,167.753036 
	C225.977448,167.673721 226.499557,167.594421 227.021667,167.515121 
	C227.021667,162.052780 227.021667,156.590439 227.021667,150.874329 
	C234.998398,150.874329 242.097733,150.874329 249.535278,150.874329 
	C249.535278,169.753479 249.535278,188.636841 249.535278,208.234879 
	C241.309448,208.234879 233.309723,208.234879 224.971756,208.234879 
	C223.520203,203.144348 222.156448,198.361694 220.792679,193.579041 
	C220.270721,193.643295 219.748764,193.707565 219.226807,193.771820 
	C219.226807,198.382263 219.226807,202.992722 219.226807,208.017670 
	C211.568695,207.535568 204.692581,207.102692 197.207428,206.631470 
	C197.207428,189.410217 197.207428,172.003250 197.204819,154.112518 
z"/>
<path fill="#FCFCFC" opacity="1.000000" stroke="none" 
	d="
M168.915955,205.196747 
	C167.251434,205.961151 165.893494,206.898758 164.528336,206.909348 
	C150.551727,207.017792 136.573944,206.975769 122.405518,206.975769 
	C122.405518,201.938400 122.405518,197.184677 122.405518,192.060425 
	C125.556679,192.060425 128.515915,192.102951 131.473495,192.050674 
	C136.135483,191.968277 140.818130,192.038910 145.444672,191.573669 
	C146.870392,191.430298 148.141632,189.750824 149.483612,188.774689 
	C148.089478,188.174240 146.725189,187.159683 145.295227,187.056717 
	C141.984161,186.818253 138.427612,187.750961 135.366852,186.855057 
	C131.749405,185.796188 127.628319,184.067856 125.352493,181.294632 
	C120.003304,174.776337 121.355095,167.201050 124.516907,160.049118 
	C127.298393,153.757477 132.742371,150.886353 139.311020,150.728073 
	C150.629883,150.455322 161.960052,150.652542 173.654999,150.652542 
	C173.654999,156.554337 173.654999,162.293671 173.654999,167.893494 
	C167.844208,167.893494 161.937653,167.853470 156.032013,167.910873 
	C153.206345,167.938339 150.350662,167.949036 147.574951,168.387527 
	C146.596161,168.542130 145.814987,169.947617 144.943573,170.781982 
	C145.870560,171.549271 146.731674,172.861099 147.736755,172.982651 
	C150.865677,173.361038 154.057526,173.176590 157.209702,173.413559 
	C164.147507,173.935104 170.113083,176.505325 172.476822,183.495499 
	C175.014511,191.000122 175.462357,198.581604 168.915955,205.196747 
z"/>
<path fill="#FCFCFC" opacity="1.000000" stroke="none" 
	d="
M310.113312,152.671631 
	C311.398193,157.984589 312.590881,162.862671 313.783600,167.740738 
	C314.404175,167.676849 315.024750,167.612961 315.645325,167.549072 
	C315.645325,162.104004 315.645325,156.658936 315.645325,150.919281 
	C323.753723,150.919281 330.965698,150.919281 338.286285,150.919281 
	C338.286285,169.598679 338.286285,188.020493 338.286285,207.508301 
	C329.959595,207.508301 321.967163,207.508301 313.480225,207.508301 
	C312.129761,202.611786 310.894897,198.134445 309.660034,193.657089 
	C309.167236,193.699280 308.674408,193.741455 308.181610,193.783630 
	C308.181610,197.973312 308.181610,202.162994 308.181610,206.666824 
	C305.088318,206.666824 302.681671,206.666824 299.657471,206.666824 
	C296.582123,188.301437 293.484741,169.804382 290.296844,150.766937 
	C296.730957,150.766937 302.808624,150.740204 308.884583,150.829956 
	C309.270264,150.835632 309.642578,151.746826 310.113312,152.671631 
z"/>
<path fill="#FAFAFA" opacity="1.000000" stroke="none" 
	d="
M222.069031,261.906433 
	C219.270660,245.070068 216.536926,228.673935 213.691544,211.608185 
	C220.441727,211.608185 226.855087,211.487671 233.252792,211.749405 
	C234.125031,211.785080 235.321167,213.612427 235.671616,214.813263 
	C236.600479,217.996231 237.079849,221.307373 237.878510,224.532745 
	C238.237839,225.983948 238.931870,227.352310 239.474030,228.758255 
	C239.997299,228.676010 240.520554,228.593765 241.043823,228.511520 
	C241.043823,223.045120 241.043823,217.578720 241.043823,211.867340 
	C249.022034,211.867340 256.123779,211.867340 263.548950,211.867340 
	C263.548950,228.779190 263.548950,245.678986 263.548950,262.980835 
	C258.015411,262.980835 252.691696,263.250793 247.408630,262.903046 
	C242.374268,262.571686 239.352036,263.974548 239.099487,269.643402 
	C237.682739,264.648926 236.265976,259.654449 234.849228,254.660004 
	C234.330002,254.683426 233.810791,254.706848 233.291580,254.730270 
	C233.014557,257.609650 232.737534,260.489044 232.346069,264.557861 
	C228.906677,263.813141 225.520172,263.079865 222.069031,261.906433 
z"/>
<path fill="#FBFBFB" opacity="1.000000" stroke="none" 
	d="
M212.688065,270.278748 
	C212.683853,282.239746 212.795822,293.725006 212.639618,305.206635 
	C212.434494,320.282135 206.574066,325.965179 191.577271,325.979156 
	C185.474686,325.984863 179.372086,325.980103 172.550964,325.980103 
	C172.550964,305.958984 172.550964,286.819702 172.550964,267.592438 
	C176.399826,267.592438 179.368317,267.592438 182.950821,267.592438 
	C182.950821,275.000275 182.933426,282.265778 182.959564,289.531128 
	C182.969727,292.358612 182.740570,295.249695 183.260086,297.990570 
	C183.607193,299.821930 185.082840,301.439362 186.053467,303.152527 
	C186.964371,301.442352 188.542572,299.777679 188.662964,298.013550 
	C189.047607,292.377960 188.906342,286.705505 188.938904,281.047119 
	C188.963654,276.747986 188.943817,272.448578 188.943817,267.623810 
	C196.430389,267.623810 203.522598,267.562469 210.609985,267.718933 
	C211.316620,267.734558 211.993988,269.075531 212.688065,270.278748 
z"/>
<path fill="#FBFBFB" opacity="1.000000" stroke="none" 
	d="
M293.702881,266.993469 
	C291.218079,284.013214 288.369720,300.731018 285.505493,317.446045 
	C285.087494,319.885345 284.593903,322.311707 284.117737,324.837219 
	C280.242188,324.837219 276.601318,324.837219 272.819885,324.837219 
	C271.119110,318.954559 273.691620,312.248871 269.285004,305.871033 
	C264.959442,312.326324 267.707245,318.685242 266.498291,324.699402 
	C265.096588,324.699402 263.717255,324.699402 262.004761,324.699402 
	C262.004761,318.785126 261.803131,312.969910 262.069580,307.176239 
	C262.276703,302.673431 260.677979,300.675476 256.044250,300.967133 
	C252.239487,301.206635 248.407639,301.015991 243.982452,301.015991 
	C243.982452,289.761963 243.982452,278.524231 243.982452,266.940369 
	C251.084320,266.940369 258.494476,266.940369 266.627106,266.940369 
	C266.627106,271.549286 266.379822,276.157959 266.766449,280.712769 
	C266.894989,282.226929 268.650482,283.602997 269.662170,285.042175 
	C270.555542,283.522797 272.093384,282.054779 272.219330,280.474243 
	C272.572266,276.044464 272.342316,271.568237 272.342316,266.690643 
	C279.435547,266.690643 286.384857,266.690643 293.702881,266.993469 
z"/>
<path fill="#FDFDFD" opacity="1.000000" stroke="none" 
	d="
M175.337784,221.000549 
	C175.347000,225.460510 175.347000,229.424713 175.347000,233.504425 
	C174.165604,233.740570 173.557297,233.949478 172.942154,233.972046 
	C163.652420,234.312592 163.641724,234.306625 163.456543,243.492508 
	C163.389496,246.819168 163.373322,250.147049 163.357040,253.474472 
	C163.340790,256.794312 163.353470,260.114319 163.353470,263.781006 
	C154.299866,263.781006 145.391586,263.781006 136.208847,263.781006 
	C136.208847,256.852386 136.239532,249.749298 136.200806,242.646606 
	C136.156143,234.460556 135.700363,234.041275 127.320305,233.975952 
	C126.349731,233.968384 125.379044,233.974915 123.777885,233.974915 
	C123.777885,226.182617 123.777885,218.659286 123.777885,210.867249 
	C140.579956,210.867249 157.505066,210.867249 175.328568,210.867249 
	C175.328568,213.987411 175.328568,217.246094 175.337784,221.000549 
z"/>
<path fill="#FCFCFC" opacity="1.000000" stroke="none" 
	d="
M267.178223,223.014618 
	C267.180359,218.715881 267.180359,214.914078 267.180359,210.861511 
	C271.843414,210.861511 276.115112,210.861511 280.882324,210.861511 
	C280.882324,215.732239 280.882324,220.752945 280.882324,225.773651 
	C281.447815,225.926422 282.013306,226.079208 282.578796,226.231979 
	C283.718781,222.873779 285.224152,219.587906 285.906586,216.139160 
	C286.767059,211.790787 288.766205,210.145096 293.310760,210.500748 
	C298.914612,210.939316 304.578949,210.605576 311.223755,210.605576 
	C309.047516,218.468338 307.210175,225.777802 304.965149,232.959793 
	C303.670502,237.101364 303.684296,240.833176 305.175232,244.992981 
	C307.176666,250.577072 308.349030,256.458344 310.004913,262.692444 
	C301.499451,262.692444 293.639038,262.692444 285.562042,262.692444 
	C284.459106,258.879272 283.345581,255.029404 282.232025,251.179535 
	C281.788208,251.253967 281.344391,251.328384 280.900574,251.402817 
	C280.628387,255.138672 280.356201,258.874542 280.109924,262.254700 
	C276.410583,262.985870 273.090790,263.964874 269.741058,264.081238 
	C268.883575,264.111053 267.163116,261.424316 267.143707,259.968201 
	C266.981750,247.818283 267.124939,235.664322 267.178223,223.014618 
z"/>
<path fill="#FCFCFC" opacity="1.000000" stroke="none" 
	d="
M203.000732,263.977509 
	C198.187195,263.977509 193.872086,263.977509 189.349762,263.977509 
	C189.729858,260.167603 190.073776,256.720306 190.432388,253.125778 
	C192.662094,252.785126 194.704865,252.473022 197.168655,252.096619 
	C196.085709,244.048065 195.062210,236.441315 194.038712,228.834579 
	C193.356155,228.713806 192.673615,228.593018 191.991058,228.472244 
	C191.337784,230.383713 190.431152,232.249130 190.073914,234.214401 
	C188.262604,244.178589 186.593903,254.168671 184.885757,264.088501 
	C178.910385,264.088501 173.184570,264.088501 166.396210,264.088501 
	C168.079895,255.002213 169.661270,246.468079 171.227905,238.013519 
	C178.511459,236.613358 178.650711,236.554123 178.812683,229.289154 
	C178.945969,223.311996 178.839890,217.329498 178.839890,210.977936 
	C189.146744,210.977936 199.346146,210.977936 209.997787,210.977936 
	C212.943039,228.438095 215.895477,245.940796 218.937973,263.977509 
	C213.684326,263.977509 208.591721,263.977509 203.000732,263.977509 
z"/>
<path fill="#FCFCFC" opacity="1.000000" stroke="none" 
	d="
M288.583740,161.533508 
	C291.159515,176.839890 293.633484,191.723572 296.119141,206.677521 
	C286.114014,208.014801 276.306030,206.637421 265.816803,207.031738 
	C266.291779,202.190384 266.733917,197.683975 267.211182,192.819290 
	C273.390717,193.810928 274.318695,190.975342 273.167725,185.744202 
	C271.945770,180.190430 271.519379,174.461624 269.797272,168.727448 
	C265.582306,174.237808 266.061676,180.919235 264.709412,187.030304 
	C263.278778,193.495850 262.390717,200.081467 261.261963,206.636230 
	C258.645752,207.135025 256.086700,207.622925 253.336273,208.147308 
	C253.336273,188.964767 253.336273,170.077408 253.336273,150.897766 
	C264.540649,150.897766 275.433624,150.897766 286.701233,150.897766 
	C287.298676,154.324158 287.890320,157.717484 288.583740,161.533508 
z"/>
<path fill="#FBFBFB" opacity="1.000000" stroke="none" 
	d="
M350.122925,210.687897 
	C350.984619,211.935333 351.635345,213.115372 351.642303,214.299194 
	C351.709991,225.787216 351.691193,237.275986 351.638367,248.764267 
	C351.629974,250.587463 351.396851,252.418289 351.153351,254.230225 
	C350.109833,261.994568 348.956757,262.979126 341.079834,262.979187 
	C331.939545,262.979218 322.799255,262.979187 313.839905,262.979187 
	C311.600861,255.230637 309.370972,247.809738 307.375183,240.326385 
	C307.028015,239.024597 307.505920,237.415665 307.879730,236.022934 
	C310.113556,227.699112 312.428558,219.397064 314.812561,210.738312 
	C316.792938,210.738312 319.047089,210.738312 321.950775,210.738312 
	C321.950775,217.819305 321.937592,224.911575 321.957275,232.003754 
	C321.965118,234.833069 321.692566,237.728882 322.210388,240.469193 
	C322.588440,242.469971 324.050720,244.265900 325.029694,246.153137 
	C325.952118,244.284088 327.535614,242.461990 327.672333,240.537155 
	C328.072571,234.901352 327.910095,229.224686 327.941772,223.563889 
	C327.964905,219.428574 327.946289,215.293015 327.946289,210.622238 
	C335.427277,210.622238 342.520264,210.622238 350.122925,210.687897 
z"/>
<path fill="#FBFBFB" opacity="1.000000" stroke="none" 
	d="
M298.459351,267.024719 
	C308.294830,266.728271 317.768707,266.728271 327.602173,266.728271 
	C327.602173,286.110107 327.602173,305.315063 327.602173,324.750000 
	C322.224976,324.750000 317.133179,324.750000 311.412964,324.750000 
	C311.920990,319.435608 312.416901,314.247925 312.905151,309.140533 
	C319.819550,308.345062 319.808655,308.346558 318.864380,301.531738 
	C318.293732,297.413239 317.809570,293.282227 317.190369,289.171295 
	C316.961487,287.651672 316.457275,286.173523 315.163330,284.634003 
	C310.556274,297.604156 309.149628,311.108368 306.783997,324.711700 
	C300.705658,324.711700 294.450439,324.711700 288.082306,324.711700 
	C291.428864,305.535126 294.763306,286.428162 298.459351,267.024719 
z"/>
<path fill="#FDFDFD" opacity="1.000000" stroke="none" 
	d="
M258.515259,306.857788 
	C258.511597,313.350983 258.511597,319.329681 258.511597,325.641541 
	C241.696594,325.641541 225.050476,325.641541 207.621460,325.641541 
	C215.471909,319.536346 216.048798,311.327850 216.062698,302.943512 
	C216.081985,291.326355 216.067551,279.709137 216.067551,267.852081 
	C221.992493,267.852081 227.556351,267.852081 233.950424,267.852081 
	C233.950424,277.645721 233.987320,287.240784 233.938995,296.835419 
	C233.898651,304.847961 233.854843,304.904236 241.812531,304.851135 
	C246.134201,304.822296 250.457611,304.409943 254.773102,304.502411 
	C256.034302,304.529480 257.270996,305.697937 258.515259,306.857788 
z"/>
<path fill="#FCFCFC" opacity="1.000000" stroke="none" 
	d="
M352.380493,262.295197 
	C353.309479,256.369568 354.756805,250.860718 354.948700,245.308487 
	C355.343628,233.881363 355.067505,222.431061 355.067505,210.814026 
	C364.066620,210.814026 372.645599,210.814026 381.577759,210.814026 
	C381.577759,218.426071 381.577759,225.833862 381.577759,233.755753 
	C379.638580,233.847382 377.854187,234.189178 376.144470,233.963943 
	C371.125580,233.302719 369.769470,235.700134 369.914307,240.294312 
	C370.148529,247.724182 369.977295,255.166824 369.977295,263.263062 
	C363.760376,263.062012 358.045441,262.877167 352.380493,262.295197 
z"/>
<path fill="#F8F8F8" opacity="1.000000" stroke="none" 
	d="
M193.819061,184.000198 
	C193.820618,191.797424 193.820618,199.094666 193.820618,206.686493 
	C186.753311,206.686493 180.045670,206.686493 173.324814,206.686493 
	C180.090485,190.221664 178.780823,181.976089 167.320847,172.015182 
	C168.965637,172.015182 170.032745,172.018890 171.099808,172.014557 
	C176.613785,171.992157 177.740875,170.625381 177.476440,165.226028 
	C177.249832,160.599396 177.429520,155.952850 177.429520,150.956085 
	C182.887527,150.956085 188.080338,150.956085 193.817520,150.956085 
	C193.817520,161.947372 193.817520,172.723801 193.819061,184.000198 
z"/>
<path fill="#C14126" opacity="1.000000" stroke="none" 
	d="
M240.168823,283.690674 
	C240.296265,287.982452 240.492081,291.811188 240.468506,295.638580 
	C240.463821,296.397583 239.617386,297.151459 239.159119,297.907684 
	C238.549789,297.311066 237.419815,296.722717 237.410187,296.116577 
	C237.289520,288.529266 237.331131,280.939362 237.331131,272.005432 
	C241.540466,275.928497 239.497986,279.905579 240.168823,283.690674 
z"/>
<path fill="#C94427" opacity="1.000000" stroke="none" 
	d="
M142.656921,294.698853 
	C143.659790,294.644409 145.028107,294.927887 145.030457,295.222260 
	C145.054581,298.251282 144.857651,301.282043 144.669693,305.491394 
	C140.556900,301.806824 142.387222,298.241913 142.656921,294.698853 
z"/>
</svg>